<svg xmlns="http://www.w3.org/2000/svg" viewBox="0 0 752.25 99.56"><g id="Capa_2" data-name="Capa 2"><g id="TIDAL"><path d="M273.72,97.54H254.41V29.05h-25V12.5h69.26V29.05h-25Z"/><path d="M375.89,97.54H356.47v-85h19.42Z"/><path d="M718.66,80.75h33.59V97.54h-53v-85h19.42Z"/><path d="M440.55,12.5H472c23.22,0,46.32,12.29,46.32,42.28,0,28.28-22.64,42.75-45.17,42.75H440.55ZM459.4,80.87h12.05c16.2,0,27-10.11,27-26.2,0-15.29-10.91-25.62-26.54-25.62H459.4Z"/><path d="M626.13,97.54h21.35l-35-85H592.4L557,97.54h20.77l6.27-16.78h35.86ZM589.27,65.65l12.81-33.26,12.69,33.26Z"/><rect x="57.07" y="7.29" width="35.2" height="35.2" transform="translate(4.27 60.09) rotate(-45)"/><rect x="57.07" y="57.07" width="35.2" height="35.2" transform="translate(-30.93 74.68) rotate(-45)"/><rect x="7.29" y="7.29" width="35.2" height="35.2" transform="translate(-10.31 24.89) rotate(-45)"/><rect x="106.85" y="7.29" width="35.2" height="35.2" transform="translate(18.86 95.3) rotate(-45)"/></g></g></svg>