<svg fill='currentColor' viewBox="0 0 567.58 105.57"><defs><style>.cls-1{fill:#363436;}</style></defs><g id="Capa_2" data-name="Capa 2"><g id="Layer_1" data-name="Layer 1"><path class="cls-1" d="M411.08,44c-2.17,11-3.82,24.5-4.69,30.06h-.61c-.7-5.74-2.35-19.12-4.61-30l-5.56-27H378.67V90h10.52V29.89l1,5.61L400.91,90h10.52L421.94,35.5l1.13-5.64V90h10.51V17.08H416.46Z"/><path class="cls-1" d="M462,79a5.93,5.93,0,0,1-5.13,3.39c-2.43,0-3.39-1.92-3.39-6.61V36.72h-12V76.51c0,9.81,3.21,14.33,10.33,14.33,4.87,0,8.78-2.17,11.47-7.38h.26l1,6.51H474V36.72H462Z"/><path class="cls-1" d="M497.17,57.74c-3.91-2.86-6.34-4.78-6.34-9,0-2.95,1.39-4.6,4.69-4.6s4.52,2.35,4.61,10.34l10.08-.44c.78-12.94-3.48-18.33-14.51-18.33-10.25,0-15.29,4.61-15.29,14.08,0,8.6,4.17,12.51,10.94,17.63,5.82,4.52,9.21,7,9.21,10.69a4.4,4.4,0,0,1-4.78,4.69c-3.56,0-5.64-3.39-5.12-9.3l-10.17.18c-1.56,11,2.87,17.46,14.69,17.46,10.33,0,15.72-4.78,15.72-14.33C510.9,68.17,506.56,64.69,497.17,57.74Z"/><rect class="cls-1" x="517.5" y="36.72" width="11.47" height="53.25"/><path class="cls-1" d="M523.32,15.69c-4.43,0-6.51,1.66-6.51,7.39,0,5.91,2.08,7.38,6.51,7.38s6.52-1.47,6.52-7.38C529.84,17.61,527.84,15.69,523.32,15.69Z"/><path class="cls-1" d="M567.54,70.77,557,70.25c0,9.39-1,12.43-4.6,12.43s-4.17-3.39-4.17-14.43V57.92c0-10.69.69-14.08,4.25-14.08,3.31,0,4.17,3.22,4.17,13.12l10.43-.69c.69-8.26-.35-13.9-3.56-17.12-2.35-2.34-5.91-3.47-10.86-3.47-11.64,0-16.42,6.25-16.42,23.8V67c0,18.07,4.08,23.89,16,23.89,5,0,8.52-1,10.86-3.3C566.5,84.41,567.8,79,567.54,70.77Z"/><path class="cls-1" d="M158.27,88.41a13.24,13.24,0,0,1-5.13-7.56,49.58,49.58,0,0,1-1.52-13.64V59.48a44.82,44.82,0,0,1,1.74-13.82,13.88,13.88,0,0,1,5.43-7.6,17.6,17.6,0,0,1,9.69-2.39c3.94,0,7.09.81,9.47,2.43a14,14,0,0,1,5.21,7.61,46.57,46.57,0,0,1,1.65,13.77v7.73a47.55,47.55,0,0,1-1.6,13.69A13.5,13.5,0,0,1,178,88.46q-3.6,2.39-9.77,2.39Q161.88,90.85,158.27,88.41Zm13.47-8.34c.66-1.74,1-4.57,1-8.51V55a25.77,25.77,0,0,0-1-8.38,3.58,3.58,0,0,0-3.52-2.65,3.52,3.52,0,0,0-3.43,2.65c-.67,1.76-1,4.56-1,8.38v16.6c0,3.94.31,6.77,1,8.51a3.5,3.5,0,0,0,3.48,2.61A3.57,3.57,0,0,0,171.74,80.07Z"/><path class="cls-1" d="M342.82,67.34V70a72.09,72.09,0,0,0,.3,7.69,7.36,7.36,0,0,0,1.26,3.74,3.6,3.6,0,0,0,3,1.17A3.72,3.72,0,0,0,351,80.55q1-2.08,1.09-7l10.34.61a18.66,18.66,0,0,1,.08,1.91q0,7.4-4,11T347.08,90.8q-8.86,0-12.43-5.56T331.09,68V58.74q0-12,3.69-17.51t12.64-5.52c4.12,0,7.27.75,9.48,2.26a12.08,12.08,0,0,1,4.64,7,50.73,50.73,0,0,1,1.35,13.21v9.12Zm1.52-22.42a7.39,7.39,0,0,0-1.22,3.69,73.27,73.27,0,0,0-.3,7.78v3.82h8.77V56.39a65.37,65.37,0,0,0-.34-7.78A7.39,7.39,0,0,0,350,44.88a3.47,3.47,0,0,0-2.83-1.09A3.42,3.42,0,0,0,344.34,44.92Z"/><path class="cls-1" d="M129.07,66.34,115.43,17.07h11.9l4.78,22.34q1.83,8.25,2.69,14.07h.35q.61-4.17,2.7-14l5-22.42h11.9L140.89,66.34V90H129.07Z"/><path class="cls-1" d="M223.53,36.71V90h-9.38l-1.05-6.52h-.26q-3.83,7.38-11.47,7.39-5.3,0-7.82-3.48T191,76.51V36.71h12v39.1a11.82,11.82,0,0,0,.79,5.09,2.71,2.71,0,0,0,2.6,1.52,5.31,5.31,0,0,0,3-1A6,6,0,0,0,211.54,79V36.71Z"/><path class="cls-1" d="M285,36.71V90h-9.39l-1-6.52h-.26q-3.83,7.38-11.47,7.39c-3.54,0-6.14-1.16-7.82-3.48s-2.52-5.94-2.52-10.86V36.71h12v39.1a12,12,0,0,0,.78,5.09,2.71,2.71,0,0,0,2.61,1.52,5.33,5.33,0,0,0,3-1A6,6,0,0,0,273,79V36.71Z"/><path class="cls-1" d="M256.11,26.72h-11.9V90H232.48V26.72h-11.9V17.08h35.53Z"/><path class="cls-1" d="M324.72,45.23c-.72-3.36-1.9-5.79-3.52-7.3a9.43,9.43,0,0,0-6.69-2.26,11.06,11.06,0,0,0-6.17,1.87,12.63,12.63,0,0,0-4.43,4.91h-.09V14.38H292.27V90h9.9l1.22-5h.26a10.22,10.22,0,0,0,4.17,4.25A12.28,12.28,0,0,0,314,90.76a9.44,9.44,0,0,0,8.95-5.61q2.87-5.59,2.87-17.5V59.22A70.16,70.16,0,0,0,324.72,45.23ZM313.73,67a67,67,0,0,1-.48,9.13,9.8,9.8,0,0,1-1.61,4.69,3.69,3.69,0,0,1-3,1.39,5.47,5.47,0,0,1-2.73-.7,5.26,5.26,0,0,1-2.05-2.08V49.14a7.58,7.58,0,0,1,2.09-3.56,4.58,4.58,0,0,1,3.21-1.39A3.26,3.26,0,0,1,312,45.62a11.13,11.13,0,0,1,1.39,4.82,90.34,90.34,0,0,1,.39,9.65Z"/><path class="cls-1" d="M52.79,0a52.79,52.79,0,1,0,52.78,52.79A52.78,52.78,0,0,0,52.79,0Zm0,84.84A32.06,32.06,0,1,1,84.84,52.79,32.05,32.05,0,0,1,52.79,84.84Z"/><path class="cls-1" d="M52.79,25a27.8,27.8,0,1,0,27.79,27.8A27.83,27.83,0,0,0,52.79,25ZM42.59,68.38V37.19l27,15.6Z"/></g></g></svg>