<svg width="64" height="59" viewBox="0 0 64 59" fill="none" xmlns="http://www.w3.org/2000/svg">
<path d="M54.6545 9.86027C54.0704 9.86027 53.4863 9.86027 52.9022 9.9411H52.8188L52.7353 9.86027C47.8123 3.71781 40.0522 0 32.0417 0C24.0313 0 16.1877 3.71781 11.3481 9.9411L11.2647 10.0219H11.1812C10.5971 9.9411 10.013 9.9411 9.42894 9.9411H5.7575V16.2452L5.67406 16.326C2.25293 17.8616 0 21.2562 0 24.974C0 28.6918 2.25293 32.0863 5.67406 33.6219H5.84094V33.7836C5.92438 47.6849 17.6897 59 32.0417 59C46.3937 59 58.1591 47.6849 58.2425 33.7836V33.6219L58.326 33.5411C61.7471 31.9247 64 28.5301 64 24.8932C64 21.1753 61.7471 17.7808 58.326 16.2452L58.2425 16.1644V9.86027H54.6545ZM18.1904 11.9616C21.8618 8.40548 26.8683 6.38493 32.0417 6.38493C37.2151 6.38493 42.2216 8.40548 45.8931 11.9616L46.06 12.1233L45.8097 12.2849C44.8083 12.8507 43.8905 13.4164 42.9726 14.063L42.8892 14.1438L42.8057 14.063C40.3859 12.8507 36.5476 11.4767 32.1252 11.4767C27.7027 11.4767 23.8644 12.8507 21.4446 14.063L21.3611 14.1438L21.2777 14.063C20.3598 13.4164 19.3585 12.7699 18.4407 12.2849L17.94 12.1233L18.1904 11.9616ZM51.0665 33.5411C51.0665 43.7247 42.472 52.0493 31.9583 52.0493C21.4446 52.0493 12.9335 43.7247 12.9335 33.5411V17.5384L13.1838 17.6192C16.5215 18.4274 19.6923 21.9836 20.4433 22.8726C21.2777 21.9836 25.1995 18.5082 32.0417 18.5082C38.884 18.5082 42.8057 22.0644 43.6402 22.8726C44.3911 21.9836 47.4785 18.4274 50.8996 17.6192L51.1499 17.5384V33.5411H51.0665Z" fill="#FCFCFC"></path>
</svg>