<svg width="384" height="52" viewBox="0 0 384 52" fill="none" xmlns="http://www.w3.org/2000/svg">
<path d="M25.5107 51.1973V42.7838C25.5107 36.4378 24.7354 34.6 22.2946 29.3165L9.63132 1.66406H0.643555L16.8962 37.0121V51.1973H25.5107ZM31.1388 25.6123L41.7059 1.66406H32.9478L22.3807 25.6123H31.1388ZM121.217 51.9151C125.209 51.9151 128.482 50.0487 130.779 46.5742L131.21 51.1973H139.049V1.66406H130.578V19.5534C128.454 16.3374 125.295 14.6432 121.591 14.6432C113.407 14.6432 107.693 21.5635 107.693 33.5376C107.693 45.3394 113.235 51.9151 121.217 51.9151ZM173.335 48.7852V41.8649C170.693 43.6452 166.271 45.2246 162.136 45.2246C155.934 45.2246 153.579 42.2956 153.234 36.3229H173.679V31.8147C173.679 19.3524 168.195 14.6432 159.724 14.6432C149.387 14.6432 144.476 22.5398 144.476 33.394C144.476 45.8563 150.593 51.9151 161.447 51.9151C166.845 51.9151 170.837 50.4794 173.335 48.7852ZM82.0216 25.4687C83.6009 23.5448 86.0704 21.9081 89.1429 21.9081C92.1292 21.9081 93.4788 23.2002 93.4788 25.8994V51.1973H101.95V25.038C101.95 17.9167 99.1069 14.7868 92.1866 14.7868C87.1328 14.7868 84.1465 16.6532 82.4236 18.3474H81.9928L81.7918 15.3611H73.522V51.1973H81.9928V25.4687H82.0216ZM66.6304 26.7609C66.6304 18.0603 62.2083 14.7868 53.2205 14.7868C47.6498 14.7868 43.1703 17.1414 40.6147 18.9791V26.3302C43.3139 24.1191 47.4488 21.5635 52.2442 21.5635C56.293 21.5635 58.1595 22.9992 58.1595 26.847V29.1155H56.8099C43.8308 29.1155 38.0591 33.3079 38.0591 40.8025C38.0591 47.7228 42.4812 51.7141 49.0282 51.7141C54.0245 51.7141 56.1494 50.0774 57.7862 48.3545H58.1308C58.1882 49.2734 58.4753 50.4794 58.7625 51.1973H67.0324C66.7452 48.2683 66.6017 45.3394 66.6017 42.4392V26.7609H66.6304ZM199.408 51.1973H208.97L197.283 32.7336L207.391 15.3611H198.92L192.804 26.1866L185.969 15.3611H176.379L187.204 32.5326L175.948 51.1973H184.562L191.77 39.0796L199.408 51.1973ZM123.716 21.3338C128.281 21.3338 130.55 24.9806 130.55 33.2217C130.55 41.549 128.138 45.1958 123.342 45.1958C118.719 45.1958 116.422 41.6352 116.422 33.5089C116.451 25.038 118.863 21.3338 123.716 21.3338ZM159.58 21.3338C163.773 21.3338 165.065 24.837 165.065 29.3165V30.0344H153.234C153.436 24.3201 155.503 21.3338 159.58 21.3338ZM58.1595 42.6402C57.097 44.2195 55.087 45.483 52.1006 45.483C48.54 45.483 46.7597 43.4155 46.7597 40.2856C46.7597 36.1507 49.6886 34.7149 56.9535 34.7149H58.1595V42.6402Z" fill="white"/>
<path d="M244.246 51.1847H251.716L261.915 13.4757V51.1847H270.462V1.26514H258.826L248.771 38.2559L238.715 1.26514H226.935V51.1847H234.046V13.4757L244.246 51.1847Z" fill="white"/>
<path d="M297.401 40.9853C295.821 42.9246 293.307 44.5766 290.219 44.5766C287.202 44.5766 285.837 43.2838 285.837 40.5543V15.0559H277.29V41.4163C277.29 48.5989 280.163 51.7593 287.13 51.7593C292.23 51.7593 295.246 49.8918 296.97 48.168H297.401L297.617 51.1847H305.949V15.0559H297.401V40.9853Z" fill="white"/>
<path d="M324.275 51.903C332.75 51.903 338.281 48.3835 338.281 39.8361C338.281 33.5153 333.899 30.2113 326.645 29.2057C323.054 28.7029 320.037 28.272 320.037 24.8243C320.037 22.0949 322.192 20.8738 326.214 20.8738C331.745 20.8738 335.264 22.885 335.839 23.3159V16.3488C335.839 16.3488 332.463 14.3376 325.352 14.3376C316.589 14.3376 311.705 18.9345 311.705 25.1834C311.705 31.576 315.368 34.88 322.407 35.8138C327.363 36.4602 330.021 37.8249 330.021 40.9853C330.021 43.7865 327.794 45.1513 322.91 45.1513C316.661 45.1513 312.639 41.9191 311.92 41.5599V48.5271C311.92 48.5271 315.943 51.903 324.275 51.903Z" fill="white"/>
<path d="M347.892 10.6026C350.693 10.6026 352.919 8.66329 352.919 5.57474C352.919 2.55802 350.693 0.546875 347.892 0.546875C345.09 0.546875 342.935 2.55802 342.935 5.57474C342.935 8.66329 345.09 10.6026 347.892 10.6026ZM343.654 15.0559V51.1847H352.201V15.0559H343.654Z" fill="white"/>
<path d="M374.88 51.903C378.831 51.903 381.632 51.1847 383.715 49.6763V42.7091C381.56 44.2175 378.975 45.1513 375.383 45.1513C369.278 45.1513 366.764 40.4107 366.764 32.9407C366.764 25.1116 369.853 21.0893 375.455 21.0893C378.759 21.0893 381.991 22.2385 383.715 23.3159V16.0614C381.919 15.0559 378.759 14.3376 374.521 14.3376C363.604 14.3376 357.929 22.1667 357.929 33.1562C357.929 45.2231 363.46 51.903 374.88 51.903Z" fill="white"/>
</svg>
